<svg width="3600" height="676" viewBox="0 0 3600 676" fill="none" xmlns="http://www.w3.org/2000/svg">
<path d="M1266.49 535.759V154.225H1323.64V478.609H1647.5V535.759H1266.49ZM1676.23 535.759V228.839H1733.38V535.759H1676.23ZM1676.23 185.446V128.296H1733.38V185.446H1676.23ZM1794.59 535.759V228.839H2038.01C2050.71 228.839 2062.18 232.014 2072.41 238.364C2082.99 244.714 2091.28 253.004 2097.28 263.235C2103.63 273.466 2106.81 284.931 2106.81 297.631V535.759H2049.66V299.219C2049.66 295.691 2048.24 292.692 2045.42 290.223C2042.95 287.401 2039.95 285.989 2036.43 285.989H1864.97C1861.45 285.989 1858.27 287.401 1855.45 290.223C1852.98 292.692 1851.74 295.691 1851.74 299.219V535.759H1794.59ZM2163.05 535.759V128.296H2220.2V353.724H2288.99L2403.83 228.839H2469.44V239.422L2339.8 382.299L2469.44 525.176V535.759H2403.83L2288.99 410.874H2220.2V535.759H2163.05ZM2507.27 535.759V154.754H2856.52V211.905H2564.95V316.681H2799.37V373.832H2564.95V478.609H2856.52V535.759H2507.27ZM2957.93 653.236V595.556H3145.78C3149.31 595.556 3152.31 594.145 3154.78 591.322C3157.6 588.853 3159.01 585.854 3159.01 582.327V535.759H2972.74C2960.4 535.759 2948.93 532.761 2938.35 526.763C2927.76 520.413 2919.3 511.946 2912.95 501.363C2906.95 490.78 2903.95 479.314 2903.95 466.967V229.897H2961.1V465.379C2961.1 468.907 2962.34 472.082 2964.81 474.904C2967.63 477.374 2970.8 478.609 2974.33 478.609H3145.78C3149.31 478.609 3152.31 477.374 3154.78 474.904C3157.6 472.082 3159.01 468.907 3159.01 465.379V229.897H3216.16V584.443C3216.16 597.143 3212.99 608.609 3206.64 618.839C3200.64 629.423 3192.35 637.713 3181.77 643.711C3171.54 650.061 3160.07 653.236 3147.37 653.236H2957.93ZM3328.39 535.759C3315.69 535.759 3304.23 532.584 3294 526.234C3283.77 519.884 3275.48 511.594 3269.13 501.363C3262.78 491.132 3259.6 479.667 3259.6 466.967V297.631C3259.6 284.931 3262.78 273.466 3269.13 263.235C3275.48 253.004 3283.77 244.714 3294 238.364C3304.23 232.014 3315.69 228.839 3328.39 228.839H3503.02C3515.72 228.839 3527.19 232.014 3537.42 238.364C3548 244.361 3556.29 252.652 3562.29 263.235C3568.64 273.818 3571.81 285.284 3571.81 297.631V410.874H3316.75V465.379C3316.75 468.907 3317.99 472.082 3320.46 474.904C3323.28 477.374 3326.45 478.609 3329.98 478.609H3571.81V535.759H3328.39ZM3316.75 357.428H3514.13V299.219C3514.13 295.691 3512.9 292.692 3510.43 290.223C3507.96 287.401 3504.96 285.989 3501.43 285.989H3329.98C3326.45 285.989 3323.28 287.401 3320.46 290.223C3317.99 292.692 3316.75 295.691 3316.75 299.219V357.428Z" fill="white"/>
<path d="M333.913 375.619C361.588 337.227 403.578 303.634 457.974 285.238C487.558 274.84 520.005 269.241 558.177 269.241C578.218 269.241 596.35 271.641 614.482 275.64C632.614 279.639 650.746 286.038 666.015 294.036L718.503 220.451C694.645 208.453 668.878 198.855 641.203 192.457C614.482 186.058 585.853 182.859 558.177 182.859C506.644 182.859 460.837 190.857 418.847 205.254C342.502 231.649 285.243 278.039 247.07 330.029C223.212 362.822 206.034 398.815 196.491 433.208C190.765 453.204 187.016 474.799 187.016 493.995C187.016 520.39 193.628 543.585 204.125 565.981C218.44 575.579 232.755 585.177 248.024 593.975C338.684 645.964 447.477 675.558 562.949 675.558C677.467 675.558 786.259 645.964 877.874 593.975C968.534 541.985 1041.06 467.601 1082.1 378.019L1089.73 362.822L1082.1 347.625C1050.61 279.639 996.016 218.126 934.939 170.936C945.437 193.331 950.795 215.57 950.795 241.964C950.795 262.76 948.3 287.712 941.62 310.108C954.026 326.104 969.489 345.226 979.032 363.622C944.676 430.008 888.371 485.197 819.66 524.389C746.178 566.78 656.472 590.776 562.949 590.776C469.426 590.776 380.674 566.78 306.237 524.389C302.42 521.99 297.649 519.59 293.831 517.19C291.923 509.992 291.923 502.793 291.923 493.995C290.968 455.603 305.283 414.012 333.913 375.619Z" fill="url(#paint0_linear_184_204)"/>
<path d="M774.288 355.787C746.613 393.759 704.623 426.985 650.226 445.179C620.643 455.463 588.196 461.001 550.023 461.001C529.982 461.001 511.85 458.628 493.718 454.672C475.586 450.717 457.454 444.388 442.185 436.478L389.698 509.257C413.556 521.123 439.322 530.616 466.997 536.945C493.718 543.273 522.348 546.438 550.023 546.438C601.556 546.438 647.363 538.527 689.353 524.288C765.699 498.182 822.958 452.299 861.131 400.879C884.034 370.027 900.258 337.592 909.801 305.158C916.481 283.008 919.344 260.858 919.344 240.289C919.344 214.184 913.618 188.869 903.121 167.51C883.08 152.48 863.039 139.031 841.09 126.374C750.43 74.9536 641.638 45.6836 526.165 45.6836C411.647 45.6836 302.855 74.9536 211.24 126.374C121.534 177.794 49.0062 251.365 7.97048 340.757L0.335938 355.787L7.97048 370.818C42.3259 445.179 98.6307 508.466 169.25 557.513C158.753 535.363 153.027 510.839 153.027 484.733C153.027 466.539 155.89 446.762 160.661 426.985C141.575 404.834 124.397 381.102 111.037 355.787C145.392 290.128 201.697 235.543 270.408 196.78C343.89 154.853 433.596 131.12 527.119 131.12C620.643 131.12 710.348 154.853 783.831 196.78C794.328 203.109 804.826 209.437 815.323 215.766C817.232 222.886 818.186 231.588 818.186 240.289C817.232 276.679 802.917 318.607 774.288 355.787Z" fill="url(#paint1_linear_184_204)"/>
<defs>
<linearGradient id="paint0_linear_184_204" x1="1089.74" y1="244.348" x2="225.979" y2="500.071" gradientUnits="userSpaceOnUse">
<stop stop-color="#FFC200" stop-opacity="0"/>
<stop offset="1" stop-color="#FFC200"/>
</linearGradient>
<linearGradient id="paint1_linear_184_204" x1="591.184" y1="240.046" x2="-11.4923" y2="428.643" gradientUnits="userSpaceOnUse">
<stop stop-color="#FFC200"/>
<stop offset="1" stop-color="#FFC200" stop-opacity="0"/>
</linearGradient>
</defs>
</svg>
