<svg width="231" height="44" viewBox="0 0 231 44" fill="none" xmlns="http://www.w3.org/2000/svg">
<path d="M81.3745 34.8701V10.548H85.0178V31.2269H105.663V34.8701H81.3745ZM107.495 34.8701V15.3045H111.138V34.8701H107.495ZM107.495 12.5383V8.89501H111.138V12.5383H107.495ZM115.007 34.8701V15.3045H130.525C131.334 15.3045 132.065 15.5069 132.717 15.9117C133.392 16.3165 133.921 16.845 134.303 17.4972C134.708 18.1493 134.91 18.8802 134.91 19.6899V34.8701H131.267V19.7911C131.267 19.5662 131.177 19.375 130.997 19.2176C130.84 19.0377 130.648 18.9477 130.424 18.9477H119.494C119.269 18.9477 119.067 19.0377 118.887 19.2176C118.729 19.375 118.65 19.5662 118.65 19.7911V34.8701H115.007ZM138.496 34.8701V8.89501H142.139V23.2657H146.524L153.845 15.3045H158.028V15.9791L149.763 25.0873L158.028 34.1954V34.8701H153.845L146.524 26.9089H142.139V34.8701H138.496ZM160.439 34.8701V10.5817H182.703V14.225H164.116V20.8705H179.06V24.5813H164.116V31.2269H182.703V34.8701H160.439ZM189.168 42.359V38.682H201.143C201.368 38.682 201.559 38.5921 201.717 38.4122C201.897 38.2548 201.987 38.0636 201.987 37.8387V34.8701H190.112C189.325 34.8701 188.594 34.679 187.92 34.2966C187.245 33.8918 186.705 33.3521 186.3 32.6774C185.918 32.0027 185.727 31.2718 185.727 30.4847V15.3719H189.37V30.3835C189.37 30.6084 189.449 30.8108 189.606 30.9907C189.786 31.1481 189.989 31.2269 190.213 31.2269H201.143C201.368 31.2269 201.559 31.1481 201.717 30.9907C201.897 30.8108 201.987 30.6084 201.987 30.3835V15.3719H205.63V37.9736C205.63 38.7832 205.427 39.5142 205.023 40.1663C204.64 40.841 204.112 41.3695 203.437 41.7518C202.785 42.1566 202.054 42.359 201.244 42.359H189.168ZM212.751 34.8701C211.942 34.8701 211.211 34.6677 210.559 34.2629C209.907 33.8581 209.378 33.3296 208.973 32.6774C208.568 32.0252 208.366 31.2943 208.366 30.4847V19.6899C208.366 18.8802 208.568 18.1493 208.973 17.4972C209.378 16.845 209.907 16.3165 210.559 15.9117C211.211 15.5069 211.942 15.3045 212.751 15.3045H223.884C224.693 15.3045 225.424 15.5069 226.076 15.9117C226.751 16.294 227.279 16.8225 227.662 17.4972C228.067 18.1718 228.269 18.9027 228.269 19.6899V26.9089H212.009V30.3835C212.009 30.6084 212.088 30.8108 212.245 30.9907C212.425 31.1481 212.628 31.2269 212.853 31.2269H228.269V34.8701H212.751ZM212.009 23.5018H224.592V19.7911C224.592 19.5662 224.513 19.375 224.356 19.2176C224.198 19.0377 224.007 18.9477 223.782 18.9477H212.853C212.628 18.9477 212.425 19.0377 212.245 19.2176C212.088 19.375 212.009 19.5662 212.009 19.7911V23.5018Z" fill="white"/>
<path d="M21.799 24.767C23.5633 22.3195 26.24 20.178 29.7077 19.0053C31.5936 18.3424 33.6621 17.9855 36.0955 17.9855C37.3731 17.9855 38.5289 18.1385 39.6848 18.3934C40.8407 18.6484 41.9966 19.0563 42.97 19.5662L46.316 14.8752C44.7951 14.1104 43.1525 13.4986 41.3882 13.0907C39.6848 12.6827 37.8598 12.4788 36.0955 12.4788C32.8104 12.4788 29.8902 12.9887 27.2134 13.9065C22.3465 15.5891 18.6964 18.5464 16.2629 21.8606C14.742 23.9512 13.647 26.2456 13.0386 28.4381C12.6736 29.7128 12.4346 31.0895 12.4346 32.3132C12.4346 33.9958 12.8561 35.4745 13.5253 36.9022C14.4378 37.514 15.3504 38.1259 16.3238 38.6868C22.1032 42.001 29.0385 43.8876 36.3997 43.8876C43.7 43.8876 50.6353 42.001 56.4756 38.6868C62.255 35.3725 66.8786 30.6306 69.4946 24.9199L69.9813 23.9512L69.4946 22.9824C67.487 18.6484 64.007 14.7271 60.1134 11.7188C60.7826 13.1464 61.1242 14.5641 61.1242 16.2467C61.1242 17.5724 60.9652 19.163 60.5393 20.5907C61.3302 21.6105 62.3159 22.8294 62.9243 24.0021C60.7342 28.2342 57.1448 31.7524 52.7646 34.2508C48.0802 36.9532 42.3616 38.4828 36.3997 38.4828C30.4377 38.4828 24.78 36.9532 20.0348 34.2508C19.7914 34.0978 19.4872 33.9448 19.2439 33.7919C19.1222 33.333 19.1222 32.8741 19.1222 32.3132C19.0614 29.8658 19.9739 27.2144 21.799 24.767Z" fill="url(#paint0_linear_650_3570)"/>
<path d="M49.8723 23.5025C48.108 25.9231 45.4313 28.0412 41.9636 29.2011C40.0777 29.8567 38.0092 30.2097 35.5758 30.2097C34.2982 30.2097 33.1424 30.0584 31.9865 29.8062C30.8306 29.5541 29.6747 29.1506 28.7013 28.6463L25.3553 33.2859C26.8762 34.0424 28.5188 34.6475 30.2831 35.051C31.9865 35.4544 33.8116 35.6561 35.5758 35.6561C38.861 35.6561 41.7811 35.1518 44.4579 34.2441C49.3248 32.5799 52.9749 29.6549 55.4084 26.377C56.8685 24.4102 57.9027 22.3426 58.511 20.2749C58.9369 18.8629 59.1194 17.4509 59.1194 16.1397C59.1194 14.4755 58.7544 12.8617 58.0852 11.5001C56.8076 10.5419 55.5301 9.68463 54.1308 8.87775C48.3514 5.5998 41.4161 3.73389 34.0549 3.73389C26.7546 3.73389 19.8192 5.5998 13.979 8.87775C8.26037 12.1557 3.63682 16.8457 1.02087 22.5443L0.53418 23.5025L1.02087 24.4606C3.21097 29.2011 6.8003 33.2355 11.3022 36.3621C10.633 34.9501 10.268 33.3868 10.268 31.7226C10.268 30.5627 10.4505 29.3019 10.7547 28.0412C9.53793 26.6291 8.44288 25.1162 7.59117 23.5025C9.78127 19.3168 13.3706 15.8371 17.7508 13.366C22.4352 10.6932 28.1538 9.18033 34.1157 9.18033C40.0777 9.18033 45.7963 10.6932 50.4807 13.366C51.1499 13.7695 51.8191 14.1729 52.4883 14.5763C52.6099 15.0302 52.6708 15.585 52.6708 16.1397C52.6099 18.4595 51.6974 21.1323 49.8723 23.5025Z" fill="url(#paint1_linear_650_3570)"/>
<defs>
<linearGradient id="paint0_linear_650_3570" x1="69.9814" y1="16.3987" x2="14.9184" y2="32.7006" gradientUnits="userSpaceOnUse">
<stop stop-color="#FFC200" stop-opacity="0"/>
<stop offset="1" stop-color="#FFC200"/>
</linearGradient>
<linearGradient id="paint1_linear_650_3570" x1="38.1997" y1="16.1242" x2="-0.219848" y2="28.1469" gradientUnits="userSpaceOnUse">
<stop stop-color="#FFC200"/>
<stop offset="1" stop-color="#FFC200" stop-opacity="0"/>
</linearGradient>
</defs>
</svg>
